<?xml version="1.0" encoding="UTF-8" standalone="no"?>
<!-- Created with Inkscape (http://www.inkscape.org/) -->

<svg
   xmlns:dc="http://purl.org/dc/elements/1.1/"
   xmlns:cc="http://creativecommons.org/ns#"
   xmlns:rdf="http://www.w3.org/1999/02/22-rdf-syntax-ns#"
   xmlns:svg="http://www.w3.org/2000/svg"
   xmlns="http://www.w3.org/2000/svg"
   xmlns:sodipodi="http://sodipodi.sourceforge.net/DTD/sodipodi-0.dtd"
   xmlns:inkscape="http://www.inkscape.org/namespaces/inkscape"
   width="60mm"
   height="59.868034mm"
   viewBox="0 0 60 59.868035"
   version="1.1"
   id="svg53"
   inkscape:version="0.92.4 (5da689c313, 2019-01-14)"
   sodipodi:docname="logo-tajdidlinux.svg">
  <defs
     id="defs47" />
  <sodipodi:namedview
     id="base"
     pagecolor="#ffffff"
     bordercolor="#666666"
     borderopacity="1.0"
     inkscape:pageopacity="0.0"
     inkscape:pageshadow="2"
     inkscape:zoom="1.979899"
     inkscape:cx="189.04936"
     inkscape:cy="96.966387"
     inkscape:document-units="mm"
     inkscape:current-layer="layer1"
     showgrid="false"
     fit-margin-top="5"
     fit-margin-left="5"
     fit-margin-right="5"
     fit-margin-bottom="5"
     inkscape:window-width="1366"
     inkscape:window-height="705"
     inkscape:window-x="-8"
     inkscape:window-y="-8"
     inkscape:window-maximized="1" />
  <metadata
     id="metadata50">
    <rdf:RDF>
      <cc:Work
         rdf:about="">
        <dc:format>image/svg+xml</dc:format>
        <dc:type
           rdf:resource="http://purl.org/dc/dcmitype/StillImage" />
        <dc:title></dc:title>
      </cc:Work>
    </rdf:RDF>
  </metadata>
  <g
     inkscape:label="Layer 1"
     inkscape:groupmode="layer"
     id="layer1"
     transform="translate(-11.023825,-4.1735174)">
    <g
       inkscape:export-ydpi="189.23"
       inkscape:export-xdpi="189.23"
       inkscape:export-filename="/media/data/gambar/logo/tajdid/logo-aseli.png"
       transform="matrix(0.21025799,0,0,0.21025799,-5.5332951,-21.957325)"
       id="g2859">
      <path
         inkscape:connector-curvature="0"
         style="fill:#99ff00;fill-rule:evenodd"
         id="path2861"
         d="m 285.16351,361.68822 -29.93386,10e-4 24.22559,-24.30107 -0.0493,-4.10031 0.0606,-0.0606 v -28.05732 c 1.01906,-15.63946 17.56382,-28.18206 33.15331,-29.39599 l 3.5e-4,57.26126 c -1.24405,14.85709 -12.77929,26.79697 -27.45673,28.65295 v 0 z m 31.93087,-158.44465 7.1e-4,29.93386 -24.30107,-24.22559 -4.10031,0.0493 -0.0606,-0.0606 h -28.05732 c -15.63945,-1.01905 -28.18205,-17.56382 -29.39599,-33.1533 l 57.26126,-3.6e-4 c 14.85709,1.24406 26.79697,12.77929 28.65331,27.45673 v 0 z m -159.44103,-31.24133 29.93386,-7.1e-4 -24.22559,24.30106 0.0493,4.10031 -0.0606,0.0606 v 28.05732 c -1.01905,15.63945 -17.56382,28.18205 -33.1533,29.39598 l -3.6e-4,-57.26126 c 1.24406,-14.85708 12.77929,-26.79697 27.45673,-28.6533 v 0 z m -31.07338,158.09811 -7.1e-4,-29.93386 24.30071,24.2263 4.10067,-0.0496 0.0602,0.0602 28.05768,10e-4 c 15.63945,1.01906 28.18205,17.56276 29.39528,33.15296 l -57.26091,3.5e-4 c -14.85673,-1.24476 -26.79555,-12.77929 -28.65295,-27.45744 v 0 z"
         class="fil1" />
      <path
         inkscape:connector-curvature="0"
         style="fill:#006633;fill-rule:evenodd"
         id="path2863"
         d="m 199.38713,378.64295 -21.167,-21.16595 34.31374,-0.0524 2.86441,-2.93492 h 0.0854 l 19.84039,-19.83897 c 11.77937,-10.33831 32.3465,-7.50898 44.22827,2.65712 l -40.48937,40.48973 c -11.38535,9.62504 -27.98362,9.91098 -39.67583,0.84543 v 0 z m 44.49685,-223.99016 21.16666,21.16594 -34.31339,0.0532 -2.86476,2.93457 h -0.0857 l -19.83933,19.83933 c -11.77937,10.33795 -32.34721,7.50791 -44.22898,-2.65713 l 40.48937,-40.49008 c 11.38536,-9.62574 27.98398,-9.91098 39.67618,-0.84578 v 0 z m 89.85367,134.09433 -21.16595,21.16701 -0.0532,-34.31339 -2.93457,-2.86476 v -0.0854 L 289.7446,252.81019 c -10.33795,-11.77937 -7.50826,-32.3465 2.65748,-44.22827 l 40.48973,40.48937 c 9.62539,11.38536 9.91098,27.98362 0.84579,39.67583 z m -224.61768,-44.64 21.16559,-21.16701 0.0528,34.31339 2.93457,2.86476 v 0.085 l 19.83933,19.84039 c 10.33795,11.77937 7.50898,32.3465 -2.65712,44.22863 L 109.96506,283.7829 c -9.62504,-11.3857 -9.91099,-27.98397 -0.84508,-39.67582 v 0 z"
         class="fil0" />
      <g
         transform="matrix(3.5433071,0,0,3.5433071,-329.15027,-4.3956331)"
         style="fill-rule:evenodd"
         id="g2865">
        <path
           inkscape:connector-curvature="0"
           style="fill:#009933;stroke:#006633;stroke-width:1.4107219;stroke-linecap:square;stroke-linejoin:miter;stroke-miterlimit:4;stroke-dasharray:none"
           d="m 135.817,75.9505 h 2.6924 c 0.4022,-0.0685 0.7159,-0.5394 0.7159,-1.1051 v -1.0217 h 0.0136 v -2.2725 h 2.4748 v 4.3993 h 0.001 v 0.0365 l 4.3851,0.0044 c 0.4023,-0.0685 0.7159,-0.5393 0.7159,-1.1051 v -1.0217 h 0.0136 v -2.4071 h 2.4748 v 4.5339 h 0.001 v 1.3612 c 0,0.6117 -0.3686,1.115 -0.8173,1.1136 l -12.67115,-0.0409 z m 9.4676,6.0597 0.4396,0.4396 c 0.3537,0.3536 0.3535,0.9325 0,1.286 l -0.8574,0.8574 c -0.3535,0.3535 -0.9324,0.3537 -1.286,0 l -0.8574,-0.8574 c -0.3536,-0.3537 -0.3537,-0.9323 0,-1.286 l 0.4396,-0.4396 -0.4396,-0.4396 c -0.3536,-0.3537 -0.3537,-0.9323 0,-1.286 l 0.8574,-0.8574 c 0.3537,-0.3537 0.9323,-0.3536 1.286,0 l 0.8574,0.8574 c 0.3537,0.3536 0.3535,0.9325 0,1.286 z m 15.5318,-2.5288 0.8574,0.8574 c 0.3537,0.3537 0.3537,0.9324 0,1.286 l -0.8574,0.8574 c -0.3536,0.3537 -0.9324,0.3537 -1.286,0 l -0.8574,-0.8574 c -0.3537,-0.3536 -0.3537,-0.9323 0,-1.286 l 0.8574,-0.8574 c 0.3536,-0.3537 0.9324,-0.3537 1.286,0 z m 7.9695,-8.0805 0.4396,0.4396 c 0.3537,0.3536 0.3537,0.9323 0,1.286 l -0.8573,0.8573 c -0.3537,0.3537 -0.9324,0.3537 -1.286,0 l -0.8574,-0.8573 c -0.3537,-0.3537 -0.3537,-0.9324 0,-1.286 l 0.4396,-0.4396 -0.4396,-0.4396 c -0.3537,-0.3537 -0.3537,-0.9324 0,-1.286 l 0.8574,-0.8574 c 0.3536,-0.3537 0.9323,-0.3537 1.286,0 l 0.8573,0.8574 c 0.3537,0.3536 0.3537,0.9323 0,1.286 z m -3.4704,4.5861 v -3.6849 c 0,-0.4496 -0.5011,-0.8173 -1.1136,-0.8173 h -1.3611 v 0.0013 h -5.429 v 2.4748 h 3.3021 v 0.0136 h 1.0217 c 0.5658,0 1.0366,0.3137 1.1052,0.7159 v 1.2966 h -6.3715 v -0.0365 h -0.001 v -4.3993 h -2.4747 v 2.2725 h -0.0137 v 1.0217 c 0,0.5656 -0.3136,1.0366 -0.7159,1.1051 h -2.6924 v 2.4748 l 21.4625,0.0409 c 0.4495,8e-4 0.8173,-0.5012 0.8173,-1.1136 v -1.3612 h -0.001 v -4.5338 h -2.4747 v 2.407 h -0.0137 v 1.0217 c 0,0.5647 -0.3136,1.0366 -0.7159,1.1051 l -4.3298,-0.0044 v 0 z"
           class="fil2 str0"
           id="path2867"
           sodipodi:nodetypes="ccsccccccccsccccccscccccssccsccssccsccsccccsccccssccccsccccsccssccccccscccccccccsccccsccccccscccc" />
        <path
           inkscape:connector-curvature="0"
           style="fill:#99ff00"
           d="m 135.817,78.4253 v -2.4748 h 2.6924 c 0.4022,-0.0685 0.7159,-0.5394 0.7159,-1.1051 v -1.0217 h 0.0136 v -2.2725 h 2.4748 v 4.3993 h 0.001 v 0.0365 l 4.3851,0.0044 c 0.4023,-0.0685 0.7159,-0.5393 0.7159,-1.1051 v -1.0217 h 0.0136 v -2.4071 h 2.4748 v 4.5339 h 0.001 v 1.3612 c 0,0.6117 -0.3686,1.115 -0.8173,1.1136 l -12.6715,-0.0409 v 0 z m 9.4676,3.5849 0.4396,0.4396 c 0.3537,0.3536 0.3535,0.9325 0,1.286 l -0.8574,0.8574 c -0.3535,0.3535 -0.9324,0.3537 -1.286,0 l -0.8574,-0.8574 c -0.3536,-0.3537 -0.3537,-0.9323 0,-1.286 l 0.4396,-0.4396 -0.4396,-0.4396 c -0.3536,-0.3537 -0.3537,-0.9323 0,-1.286 l 0.8574,-0.8574 c 0.3537,-0.3537 0.9323,-0.3536 1.286,0 l 0.8574,0.8574 c 0.3537,0.3536 0.3535,0.9325 0,1.286 z m 15.5318,-2.5288 0.8574,0.8574 c 0.3537,0.3537 0.3537,0.9324 0,1.286 l -0.8574,0.8574 c -0.3536,0.3537 -0.9324,0.3537 -1.286,0 l -0.8574,-0.8574 c -0.3537,-0.3536 -0.3537,-0.9323 0,-1.286 l 0.8574,-0.8574 c 0.3536,-0.3537 0.9324,-0.3537 1.286,0 z m 7.9695,-8.0805 0.4396,0.4396 c 0.3537,0.3536 0.3537,0.9323 0,1.286 l -0.8573,0.8573 c -0.3537,0.3537 -0.9324,0.3537 -1.286,0 l -0.8574,-0.8573 c -0.3537,-0.3537 -0.3537,-0.9324 0,-1.286 l 0.4396,-0.4396 -0.4396,-0.4396 c -0.3537,-0.3537 -0.3537,-0.9324 0,-1.286 l 0.8574,-0.8574 c 0.3536,-0.3537 0.9323,-0.3537 1.286,0 l 0.8573,0.8574 c 0.3537,0.3536 0.3537,0.9323 0,1.286 z m -3.4704,4.5861 v -3.6849 c 0,-0.4496 -0.5011,-0.8173 -1.1136,-0.8173 h -1.3611 v 0.0013 h -5.429 v 2.4748 h 3.3021 v 0.0136 h 1.0217 c 0.5658,0 1.0366,0.3137 1.1052,0.7159 v 1.2966 h -6.3715 v -0.0365 h -0.001 v -4.3993 h -2.4747 v 2.2725 h -0.0137 v 1.0217 c 0,0.5656 -0.3136,1.0366 -0.7159,1.1051 h -2.6924 v 2.4748 l 21.4625,0.0409 c 0.4495,8e-4 0.8173,-0.5012 0.8173,-1.1136 v -1.3612 h -0.001 v -4.5338 h -2.4747 v 2.407 h -0.0137 v 1.0217 c 0,0.5647 -0.3136,1.0366 -0.7159,1.1051 l -4.3298,-0.0044 v 0 z"
           class="fil1"
           id="path2869" />
      </g>
    </g>
  </g>
</svg>
